<?xml version="1.0" encoding="UTF-8" standalone="no"?>
<svg
   id="Camada_1"
   version="1.1"
   viewBox="0 0 917.11 488.17"
   sodipodi:docname="eclode_marca_branca.svg"
   inkscape:version="1.4 (86a8ad7, 2024-10-11)"
   xmlns:inkscape="http://www.inkscape.org/namespaces/inkscape"
   xmlns:sodipodi="http://sodipodi.sourceforge.net/DTD/sodipodi-0.dtd"
   xmlns="http://www.w3.org/2000/svg"
   xmlns:svg="http://www.w3.org/2000/svg">
  <sodipodi:namedview
     id="namedview7"
     pagecolor="#ffffff"
     bordercolor="#000000"
     borderopacity="0.25"
     inkscape:showpageshadow="2"
     inkscape:pageopacity="0.0"
     inkscape:pagecheckerboard="0"
     inkscape:deskcolor="#d1d1d1"
     inkscape:zoom="0.27991966"
     inkscape:cx="573.3788"
     inkscape:cy="594.81352"
     inkscape:window-width="1920"
     inkscape:window-height="991"
     inkscape:window-x="-9"
     inkscape:window-y="-9"
     inkscape:window-maximized="1"
     inkscape:current-layer="Camada_1" />
  <!-- Generator: Adobe Illustrator 29.8.7, SVG Export Plug-In . SVG Version: 2.1.1 Build 1)  -->
  <defs
     id="defs1">
    <style
       id="style1">
      .st0 {
        fill: #1a1b39;
      }
    </style>
  </defs>
  <g
     id="g6"
     style="fill:#ffffff">
    <path
       class="st0"
       d="M347.06,259.22c0-26.63,15.85-45.81,43.44-45.81s41.85,18.71,41.85,45.81c0,2.7-.16,4.44-.63,7.13h-67.21c1.43,15.22,12.84,23.78,29.17,23.78,10.78,0,19.34-2.22,28.69-7.77l6.34,13.32c-9.83,6.18-21.4,9.35-35.98,9.35-29.8,0-45.65-18.71-45.65-45.81ZM415.55,252.87c-.95-15.22-9.19-24.57-25.05-24.57s-25.52,9.51-25.52,24.57h50.57Z"
       id="path1"
       style="fill:#ffffff" />
    <path
       class="st0"
       d="M441.86,259.22c0-26.63,15.22-45.81,44.23-45.81,13.79,0,24.25,3.65,32.34,10.15l-7.93,13c-8.24-5.23-14.43-7.29-22.99-7.29-19.97,0-28.53,12.37-28.53,29.96s8.08,30.12,28.53,30.12c8.88,0,15.85-2.22,24.89-7.93l7.61,13.32c-9.99,6.66-20.29,10.3-35.51,10.3-27.9,0-42.64-18.86-42.64-45.81Z"
       id="path2"
       style="fill:#ffffff" />
    <path
       class="st0"
       d="M531.9,281.88v-93.53l16.17-4.44v94.64c0,7.93,2.69,10.78,8.72,10.78,2.85,0,5.71-.95,9.04-3.96v14.9c-2.06,2.38-7.29,4.76-13.79,4.76-8.88,0-20.13-4.6-20.13-23.14Z"
       id="path3"
       style="fill:#ffffff" />
    <path
       class="st0"
       d="M569.79,259.22c0-27.27,15.22-45.81,45.65-45.81s45.65,18.55,45.65,45.81-15.22,45.81-45.65,45.81-45.65-18.55-45.65-45.81ZM643.98,259.22c0-18.23-8.56-29.96-28.53-29.96s-28.53,11.73-28.53,29.96,8.4,30.12,28.53,30.12,28.53-11.89,28.53-30.12Z"
       id="path4"
       style="fill:#ffffff" />
    <path
       class="st0"
       d="M745.43,304.39c-1.74-4.91-3.01-9.67-3.8-16.33-6.5,11.89-19.02,16.96-31.07,16.96-23.3,0-39.95-15.85-39.95-44.39s18.55-47.4,47.4-47.4c7.77,0,15.85,1.43,22.99,4.28v-29.17l16.33-4.44v89.88c0,12.52.16,19.82,2.69,30.59h-14.58ZM740.99,259.06v-26c-6.02-3.8-12.52-5.39-23.3-5.39-19.97,0-29.96,13-29.96,32.97,0,18.71,9.35,29.8,25.68,29.8,18.39,0,27.58-13.63,27.58-31.39Z"
       id="path5"
       style="fill:#ffffff" />
    <path
       class="st0"
       d="M773.33,259.22c0-26.63,15.85-45.81,43.44-45.81s41.85,18.71,41.85,45.81c0,2.7-.16,4.44-.63,7.13h-67.21c1.43,15.22,12.84,23.78,29.17,23.78,10.78,0,19.34-2.22,28.69-7.77l6.34,13.32c-9.83,6.18-21.4,9.35-35.98,9.35-29.8,0-45.65-18.71-45.65-45.81ZM841.81,252.87c-.95-15.22-9.19-24.57-25.05-24.57s-25.52,9.51-25.52,24.57h50.57Z"
       id="path6"
       style="fill:#ffffff" />
  </g>
  <path
     class="st0"
     d="M408.1,456.75l-107.15-194.18c1.26-1.98,1.53-4.42.78-6.6l90.99-148.61c.45-.74.22-1.7-.52-2.15l-3.12-1.91c-.74-.45-1.7-.22-2.15.52l-88.58,144.67-.25.03,15.04-124.91-3.15-.38-15.12,125.65-.33.04-.75-.25-9.99-225.49-4.47.2,9.76,220.15-54.81-136.79-3.15,1.26,48.67,121.46-90.41-154.1c-.48-.82-1.54-1.09-2.36-.61l-3.47,2.04c-.82.48-1.09,1.54-.61,2.36l94.51,161.08-117.04-111.26-2.63,2.77,114.68,109.01-8.34-4.38-135.44-91.86-1.82,2.68,111.61,75.7-159.52-83.84-.69,1.31,171.12,89.95,10.6,7.19L40.37,164.73l-1.18,3.56,232.19,76.9,5.84,3.96-60.51-11.76-1.2,6.17,46.13,8.96-.41.05-202.57,3.44c-.69.01-1.24.58-1.23,1.27l.05,2.92c.01.69.58,1.24,1.27,1.23l144.37-2.45-117.71,12.98.59,5.39,175.57-19.35,16.22-.28-97.45,39.05,2.74,6.85,100.65-40.33-214.29,123.72,1.68,2.92,214.6-123.9-157.4,185.95,5.96,5.05,136.32-161.05-77.43,135.52,4.71,2.69,81.56-142.74-41.97,92.41,2.1.95,51.11-112.54,1.1-1.31-16.07,179.15,5.4.48,14.27-159.08,5.25,70.27,5.4-.4-6.78-90.67,104.1,188.65,4.74-2.62Z"
     id="path7"
     style="fill:#ffffff" />
</svg>
